<svg id="Capa_1" enable-background="new 0 0 512 512" height="512" viewBox="0 0 512 512" width="512" xmlns="http://www.w3.org/2000/svg"><g><path d="m496.336 75.451c8.637 0 15.664-7.029 15.664-15.67v-18.61c0-8.641-7.027-15.671-15.664-15.671h-222.605c-4.142 0-7.5 3.357-7.5 7.5s3.358 7.5 7.5 7.5h222.605c.354 0 .664.313.664.671v18.61c0 .338-.329.67-.664.67h-480.672c-.354 0-.664-.313-.664-.67v-18.61c0-.37.298-.671.664-.671h223.456c4.142 0 7.5-3.357 7.5-7.5s-3.358-7.5-7.5-7.5h-223.456c-8.637 0-15.664 7.03-15.664 15.671v18.61c0 8.641 7.027 15.67 15.664 15.67h6.333v361.098h-6.333c-8.637 0-15.664 7.029-15.664 15.67v18.61c0 8.641 7.027 15.671 15.664 15.671h225.355c4.142 0 7.5-3.357 7.5-7.5s-3.358-7.5-7.5-7.5h-225.355c-.354 0-.664-.313-.664-.671v-18.61c0-.356.31-.67.664-.67h480.673c.335 0 .664.332.664.67v18.61c0 .339-.329.671-.664.671h-222.096c-4.142 0-7.5 3.357-7.5 7.5s3.358 7.5 7.5 7.5h222.095c8.637 0 15.664-7.03 15.664-15.671v-18.61c0-8.641-7.027-15.67-15.664-15.67h-7.184v-361.098zm-148.167 272.328h-185.387c-8.634 0-15.659-7.033-15.659-15.678v-139.947c0-8.661 7.025-15.707 15.659-15.707h185.387c.926 0 1.828.096 2.71.251.174.038.352.065.531.09 7.099 1.5 12.446 7.817 12.446 15.366v139.947c0 8.645-7.037 15.678-15.687 15.678zm-3.191-186.332h-49.602v-85.996h49.602zm-64.603 0h-49.602v-85.996h49.602zm-64.601 0h-49.573v-85.996h49.573zm-64.573 2.282c-11.18 4.586-19.078 15.597-19.078 28.425v139.947c0 12.817 7.898 23.816 19.078 28.398v76.049h-49.602v-361.097h49.602zm15 199.05h49.573v73.77h-49.573zm64.573 0h49.602v73.77h-49.602zm64.601 0h49.602v73.77h-49.602zm64.603-2.365c11.076-4.634 18.879-15.578 18.879-28.313v-139.947c0-12.746-7.803-23.701-18.879-28.34v-88.363h49.573v361.098h-49.573zm-322.981-284.963h49.602v361.098h-49.602zm437.156 361.098h-49.602v-361.098h49.602z"/><path d="m255.476 208.967c-21.985 0-39.872 17.911-39.872 39.927 0 12.546 5.988 24.393 15.874 31.871v15.677c0 10.377 8.438 18.819 18.81 18.819h10.403c10.372 0 18.81-8.442 18.81-18.819v-15.682c9.887-7.491 15.874-19.336 15.874-31.866 0-22.016-17.898-39.927-39.899-39.927zm12.692 61.368c-2.273 1.352-3.667 3.801-3.667 6.446v19.66c0 2.106-1.709 3.819-3.81 3.819h-10.403c-2.101 0-3.81-1.713-3.81-3.819v-19.66c0-2.648-1.397-5.101-3.675-6.451-7.524-4.461-12.199-12.675-12.199-21.437 0-13.745 11.157-24.927 24.872-24.927 13.73 0 24.9 11.182 24.9 24.927-.001 8.749-4.678 16.964-12.208 21.442z"/></g></svg>