<svg id="_x33_0" enable-background="new 0 0 64 64" height="512" viewBox="0 0 64 64" width="512" xmlns="http://www.w3.org/2000/svg"><g><path d="m21 17v2h3c1.615 0 3.067-.897 3.789-2.342l.105-.211-1.789-.895-.105.212c-.381.762-1.147 1.236-2 1.236z"/><path d="m25.5 4.585h2v5.831h-2z" transform="matrix(.515 -.858 .858 .515 6.435 26.365)"/><path d="m9 41h8v2h-8z"/><path d="m19 41h8v2h-8z"/><path d="m9 45h30v2h-30z"/><path d="m9 49h30v2h-30z"/><path d="m9 57h2v2h-2z"/><path d="m13 57h2v2h-2z"/><path d="m17 57h2v2h-2z"/><path d="m9 53h30v2h-30z"/><path d="m49 45v-4.667l6.225-8.299-2.882-4.323-2.146 1.072-2.197-2.197-2.197 2.197-2.146-1.072-2.882 4.323 6.225 8.299v4.667zm-5.775-13.034 1.118-1.677 1.854.928 1.803-1.803 1.803 1.803 1.854-.928 1.118 1.677-3.775 5.034v-4h-2v4z"/><path d="m43 47h10v2h-10z"/><path d="m50.82 18h-3.82v-7c0-1.103-.897-2-2-2h-10.006c-.067-4.422-3.679-8-8.117-8h-6.641c-1.614 0-3.079.822-3.918 2.173l-.082.027c-1.935.646-3.236 2.45-3.236 4.491 0 .261.021.522.064.778l.089.531h-10.153c-1.103 0-2 .897-2 2v50c0 1.103.897 2 2 2h42c1.103 0 2-.897 2-2v-4.101c.323.066.658.101 1 .101 2.757 0 5-2.243 5-5v-1h-10v1c0 1.627.793 3.061 2 3.974v5.026h-42v-50h10.486l.278 1.668c-.476.658-.764 1.46-.764 2.332 0 2.206 1.794 4 4 4h.101c.289 1.419 1.193 2.604 2.408 3.309l-.274.824-.605.121c-5.58 1.116-9.63 6.056-9.63 11.746v4h27.804c.435.414.892.808 1.391 1.157l3.952 2.767c.535.373.853.986.853 1.638v.438h2v-.438c0-1.304-.638-2.529-1.706-3.277l-3.952-2.767c-2.719-1.902-4.342-5.02-4.342-8.339 0-5.613 4.566-10.179 10.18-10.179h5.641c5.613 0 10.179 4.566 10.179 10.179 0 3.319-1.623 6.437-4.342 8.339l-3.952 2.767c-1.068.748-1.706 1.973-1.706 3.277v.438h2v-.438c0-.652.318-1.265.853-1.638l3.952-2.767c3.253-2.277 5.195-6.007 5.195-9.978 0-6.716-5.464-12.179-12.18-12.179zm.009 35c-.413 1.164-1.525 2-2.829 2s-2.416-.836-2.829-2zm-17.829-38c0 1.103-.897 2-2 2v-4c1.103 0 2 .897 2 2zm-18 0c0-1.103.897-2 2-2v4c-1.103 0-2-.897-2-2zm5.044-8.14-.491.246c-1.503.751-2.453 2.23-2.537 3.894h-.016c-.509 0-.992.105-1.44.279l-.523-3.141c-.025-.147-.037-.297-.037-.447 0-1.178.751-2.221 1.868-2.593l.841-.28.186-.371c.446-.892 1.343-1.447 2.341-1.447h6.641c3.376 0 6.123 2.747 6.123 6.123 0 .501-.062 1-.183 1.485l-.187.747c-.499-.224-1.048-.355-1.63-.355h-2v7c0 1.654-1.346 3-3 3h-4c-1.654 0-3-1.346-3-3v-6.764c0-.822.376-1.576 1.008-2.065l4.478 2.687 1.029-1.715zm3.711 25.14h.49l1.429 5h-3.348zm.71-2h-.93l-.586-.879 1.051-.84 1.051.841zm1.168-2.975 2.609-1.957.737.147c.2.04.391.108.588.16l-1.115 3.905zm-3.633-4.025h4c.203 0 .398-.029.595-.053l.228.686-2.823 2.117-2.823-2.117.231-.693c.196.024.389.06.592.06zm-2.979 2.215.737-.147 2.609 1.957-2.819 2.255-1.119-3.919c.197-.052.392-.106.592-.146zm-8.021 9.785c0-3.849 2.224-7.285 5.549-8.939l1.902 6.659 2.93-2.344.529.794-1.665 5.83h-9.245zm24.094 2h-7.339l-1.666-5.83.529-.794 2.93 2.344 1.901-6.654c.682.338 1.314.765 1.904 1.252-.222.919-.353 1.874-.353 2.861 0 2.463.75 4.832 2.094 6.821zm-1.066-11.702c-1.385-1-2.967-1.706-4.657-2.044l-.605-.121-.268-.804c1.217-.705 2.112-1.908 2.402-3.329h.1c2.206 0 4-1.794 4-4 0-.815-.248-1.573-.668-2.206l.425-1.7c.008-.031.01-.063.017-.094h10.226v7.009c-4.902.072-9.109 3.051-10.972 7.289z"/></g></svg>